<?xml version="1.0" encoding="UTF-8"?><svg xmlns="http://www.w3.org/2000/svg" xmlns:xlink="http://www.w3.org/1999/xlink" fill-opacity="1" color-rendering="auto" color-interpolation="auto" text-rendering="auto" stroke="black" stroke-linecap="square" width="495" stroke-miterlimit="10" shape-rendering="auto" stroke-opacity="1" fill="black" stroke-dasharray="none" font-weight="normal" stroke-width="1" height="303" font-family="'Dialog'" font-style="normal" stroke-linejoin="miter" font-size="12px" stroke-dashoffset="0" image-rendering="auto">
  <!--Generated by ySVG 2.6-->
  <defs id="genericDefs"/>
  <g>
    <defs id="defs1">
      <clipPath clipPathUnits="userSpaceOnUse" id="clipPath1">
        <path d="M0 0 L495 0 L495 303 L0 303 L0 0 Z"/>
      </clipPath>
      <clipPath clipPathUnits="userSpaceOnUse" id="clipPath2">
        <path d="M-11 -15 L484 -15 L484 288 L-11 288 L-11 -15 Z"/>
      </clipPath>
    </defs>
    <g fill="white" text-rendering="geometricPrecision" shape-rendering="geometricPrecision" transform="translate(11,15)" stroke="white">
      <rect x="-11" width="495" height="303" y="-15" clip-path="url(#clipPath2)" stroke="none"/>
    </g>
    <g fill="rgb(204,204,255)" text-rendering="geometricPrecision" shape-rendering="geometricPrecision" transform="matrix(1,0,0,1,11,15)" stroke="rgb(204,204,255)">
      <path d="M408.8466 140.3017 L426.42 131.5149 L451.2729 131.5149 L468.8465 140.3017 L468.8465 152.7281 L451.2729 161.5149 L426.42 161.5149 L408.8466 152.7281 Z" fill-rule="evenodd" clip-path="url(#clipPath2)" stroke="none"/>
    </g>
    <g text-rendering="geometricPrecision" stroke-miterlimit="1.45" font-size="10px" shape-rendering="geometricPrecision" transform="matrix(1,0,0,1,11,15)" stroke-linecap="butt">
      <text x="425.2602" xml:space="preserve" y="142.7972" clip-path="url(#clipPath2)" stroke="none">Laser</text>
      <path fill="none" d="M408.8466 140.3017 L426.42 131.5149 L451.2729 131.5149 L468.8465 140.3017 L468.8465 152.7281 L451.2729 161.5149 L426.42 161.5149 L408.8466 152.7281 Z" clip-path="url(#clipPath2)" fill-rule="evenodd"/>
    </g>
    <g fill="rgb(204,204,255)" text-rendering="geometricPrecision" shape-rendering="geometricPrecision" transform="matrix(1,0,0,1,11,15)" stroke="rgb(204,204,255)">
      <path d="M391.6125 226.9437 L409.1862 218.157 L434.0389 218.157 L451.6125 226.9437 L451.6125 239.3701 L434.0389 248.157 L409.1862 248.157 L391.6125 239.3701 Z" fill-rule="evenodd" clip-path="url(#clipPath2)" stroke="none"/>
    </g>
    <g text-rendering="geometricPrecision" stroke-miterlimit="1.45" font-size="10px" shape-rendering="geometricPrecision" transform="matrix(1,0,0,1,11,15)" stroke-linecap="butt">
      <text x="396.5221" xml:space="preserve" y="229.4392" clip-path="url(#clipPath2)" stroke="none">Odometry</text>
      <path fill="none" d="M391.6125 226.9437 L409.1862 218.157 L434.0389 218.157 L451.6125 226.9437 L451.6125 239.3701 L434.0389 248.157 L409.1862 248.157 L391.6125 239.3701 Z" clip-path="url(#clipPath2)" fill-rule="evenodd"/>
    </g>
    <g fill="rgb(204,204,255)" text-rendering="geometricPrecision" shape-rendering="geometricPrecision" transform="matrix(1,0,0,1,11,15)" stroke="rgb(204,204,255)">
      <ellipse rx="30" ry="15" clip-path="url(#clipPath2)" cx="281.9857" cy="160.3484" stroke="none"/>
    </g>
    <g text-rendering="geometricPrecision" stroke-miterlimit="1.45" font-size="10px" shape-rendering="geometricPrecision" transform="matrix(1,0,0,1,11,15)" stroke-linecap="butt">
      <text x="269.8129" xml:space="preserve" y="156.6307" clip-path="url(#clipPath2)" stroke="none">ROS </text>
      <text x="256.7977" xml:space="preserve" y="168.2713" clip-path="url(#clipPath2)" stroke="none">gmapping</text>
      <ellipse rx="30" fill="none" ry="15" clip-path="url(#clipPath2)" cx="281.9857" cy="160.3484"/>
    </g>
    <g fill="rgb(204,204,255)" text-rendering="geometricPrecision" shape-rendering="geometricPrecision" transform="matrix(1,0,0,1,11,15)" stroke="rgb(204,204,255)">
      <ellipse rx="30" ry="15" clip-path="url(#clipPath2)" cx="263.529" cy="67.5603" stroke="none"/>
    </g>
    <g text-rendering="geometricPrecision" stroke-miterlimit="1.45" font-size="10px" shape-rendering="geometricPrecision" transform="matrix(1,0,0,1,11,15)" stroke-linecap="butt">
      <text x="239.1223" xml:space="preserve" y="63.8425" clip-path="url(#clipPath2)" stroke="none">openslam</text>
      <text x="238.341" xml:space="preserve" y="75.4831" clip-path="url(#clipPath2)" stroke="none">gmapping</text>
      <ellipse rx="30" fill="none" ry="15" clip-path="url(#clipPath2)" cx="263.529" cy="67.5603"/>
    </g>
    <g fill="rgb(204,204,255)" text-rendering="geometricPrecision" shape-rendering="geometricPrecision" transform="matrix(1,0,0,1,11,15)" stroke="rgb(204,204,255)">
      <rect x="154.867" width="60" height="30" y="0" clip-path="url(#clipPath2)" stroke="none"/>
    </g>
    <g text-rendering="geometricPrecision" stroke-miterlimit="1.45" font-size="10px" shape-rendering="geometricPrecision" transform="matrix(1,0,0,1,11,15)" stroke-linecap="butt">
      <text x="167.3597" xml:space="preserve" y="11.2822" clip-path="url(#clipPath2)" stroke="none">motion</text>
      <text x="169.2982" xml:space="preserve" y="22.9229" clip-path="url(#clipPath2)" stroke="none">model</text>
      <rect fill="none" x="154.867" width="60" height="30" y="0" clip-path="url(#clipPath2)"/>
    </g>
    <g fill="rgb(204,204,255)" text-rendering="geometricPrecision" shape-rendering="geometricPrecision" transform="matrix(1,0,0,1,11,15)" stroke="rgb(204,204,255)">
      <rect x="62.0788" width="60" height="30" y="18.4567" clip-path="url(#clipPath2)" stroke="none"/>
    </g>
    <g text-rendering="geometricPrecision" stroke-miterlimit="1.45" font-size="10px" shape-rendering="geometricPrecision" transform="matrix(1,0,0,1,11,15)" stroke-linecap="butt">
      <text x="80.4919" xml:space="preserve" y="29.7389" clip-path="url(#clipPath2)" stroke="none">scan</text>
      <text x="76.2658" xml:space="preserve" y="41.3796" clip-path="url(#clipPath2)" stroke="none">match</text>
      <rect fill="none" x="62.0788" width="60" height="30" y="18.4567" clip-path="url(#clipPath2)"/>
    </g>
    <g fill="rgb(204,204,255)" text-rendering="geometricPrecision" shape-rendering="geometricPrecision" transform="matrix(1,0,0,1,11,15)" stroke="rgb(204,204,255)">
      <rect x="9.5186" width="60" height="30" y="97.1187" clip-path="url(#clipPath2)" stroke="none"/>
    </g>
    <g text-rendering="geometricPrecision" stroke-miterlimit="1.45" font-size="10px" shape-rendering="geometricPrecision" transform="matrix(1,0,0,1,11,15)" stroke-linecap="butt">
      <text x="6" xml:space="preserve" y="108.401" clip-path="url(#clipPath2)" stroke="none">Distribution </text>
      <text x="14.2861" xml:space="preserve" y="120.0416" clip-path="url(#clipPath2)" stroke="none">selection</text>
      <rect fill="none" x="9.5186" width="60" height="30" y="97.1187" clip-path="url(#clipPath2)"/>
    </g>
    <g fill="rgb(204,204,255)" text-rendering="geometricPrecision" shape-rendering="geometricPrecision" transform="matrix(1,0,0,1,11,15)" stroke="rgb(204,204,255)">
      <rect x="27.9753" width="60" height="30" y="189.9069" clip-path="url(#clipPath2)" stroke="none"/>
    </g>
    <g text-rendering="geometricPrecision" stroke-miterlimit="1.45" font-size="10px" shape-rendering="geometricPrecision" transform="matrix(1,0,0,1,11,15)" stroke-linecap="butt">
      <text x="27.2057" xml:space="preserve" y="201.1891" clip-path="url(#clipPath2)" stroke="none">Resampling</text>
      <rect fill="none" x="27.9753" width="60" height="30" y="189.9069" clip-path="url(#clipPath2)"/>
    </g>
    <g fill="rgb(204,204,255)" text-rendering="geometricPrecision" shape-rendering="geometricPrecision" transform="matrix(1,0,0,1,11,15)" stroke="rgb(204,204,255)">
      <rect x="106.6373" width="60" height="30" y="242.4672" clip-path="url(#clipPath2)" stroke="none"/>
    </g>
    <g text-rendering="geometricPrecision" stroke-miterlimit="1.45" font-size="10px" shape-rendering="geometricPrecision" transform="matrix(1,0,0,1,11,15)" stroke-linecap="butt">
      <text x="124.4962" xml:space="preserve" y="253.7494" clip-path="url(#clipPath2)" stroke="none">Map </text>
      <text x="103.8931" xml:space="preserve" y="265.39" clip-path="url(#clipPath2)" stroke="none">maintanance</text>
      <rect fill="none" x="106.6373" width="60" height="30" y="242.4672" clip-path="url(#clipPath2)"/>
    </g>
    <g fill="rgb(204,204,255)" text-rendering="geometricPrecision" shape-rendering="geometricPrecision" transform="matrix(1,0,0,1,11,15)" stroke="rgb(204,204,255)">
      <rect x="199.4254" width="60" height="30" y="224.0105" clip-path="url(#clipPath2)" stroke="none"/>
    </g>
    <g text-rendering="geometricPrecision" stroke-miterlimit="1.45" font-size="10px" shape-rendering="geometricPrecision" transform="matrix(1,0,0,1,11,15)" stroke-linecap="butt">
      <text x="218.8737" xml:space="preserve" y="235.2927" clip-path="url(#clipPath2)" stroke="none">Map</text>
      <text x="211.8083" xml:space="preserve" y="246.9333" clip-path="url(#clipPath2)" stroke="none">update</text>
      <rect fill="none" x="199.4254" width="60" height="30" y="224.0105" clip-path="url(#clipPath2)"/>
      <path fill="none" d="M408.8607 149.1594 L319.4987 157.0402" clip-path="url(#clipPath2)"/>
      <path d="M311.5297 157.743 L323.9225 161.6694 L320.4949 156.9523 L323.044 151.7081 Z" clip-path="url(#clipPath2)" stroke="none"/>
      <path fill="none" d="M400.8525 222.3317 L309.8424 174.8743" clip-path="url(#clipPath2)"/>
      <path d="M302.7488 171.1754 L311.0773 181.1572 L310.7291 175.3367 L315.701 172.2903 Z" clip-path="url(#clipPath2)" stroke="none"/>
      <path fill="none" d="M279.0167 145.4221 L268.0588 90.3329" clip-path="url(#clipPath2)"/>
      <path d="M266.498 82.4866 L263.9352 95.2315 L268.2539 91.3137 L273.7431 93.2806 Z" clip-path="url(#clipPath2)" stroke="none"/>
      <path fill="none" d="M245.5551 55.5505 L213.9678 34.4446" clip-path="url(#clipPath2)"/>
      <path d="M207.3161 30 L214.5159 40.8242 L214.7993 35.0001 L220.0716 32.5095 Z" clip-path="url(#clipPath2)" stroke="none"/>
      <path fill="none" d="M154.867 20.9674 L129.9251 25.9286" clip-path="url(#clipPath2)"/>
      <path d="M122.0788 27.4893 L134.8237 30.0522 L130.9059 25.7335 L132.8728 20.2443 Z" clip-path="url(#clipPath2)" stroke="none"/>
      <path fill="none" d="M82.0562 48.4567 L53.9858 90.467" clip-path="url(#clipPath2)"/>
      <path d="M49.5412 97.1187 L60.3654 89.9189 L54.5414 89.6355 L52.0507 84.3632 Z" clip-path="url(#clipPath2)" stroke="none"/>
      <path fill="none" d="M42.5022 127.1187 L53.4309 182.0606" clip-path="url(#clipPath2)"/>
      <path d="M54.9916 189.9069 L57.5544 177.162 L53.2358 181.0798 L47.7466 179.1129 Z" clip-path="url(#clipPath2)" stroke="none"/>
      <path fill="none" d="M80.4244 219.9069 L107.5364 238.0226" clip-path="url(#clipPath2)"/>
      <path d="M114.1882 242.4672 L106.9884 231.643 L106.705 237.467 L101.4327 239.9577 Z" clip-path="url(#clipPath2)" stroke="none"/>
      <path fill="none" d="M166.6373 251.4998 L191.5792 246.5385" clip-path="url(#clipPath2)"/>
      <path d="M199.4254 244.9778 L186.6806 242.415 L190.5984 246.7336 L188.6315 252.2228 Z" clip-path="url(#clipPath2)" stroke="none"/>
      <path fill="none" d="M239.4481 224.0105 L268.035 181.2272" clip-path="url(#clipPath2)"/>
      <path d="M272.4795 174.5755 L261.6553 181.7753 L267.4794 182.0587 L269.97 187.3309 Z" clip-path="url(#clipPath2)" stroke="none"/>
    </g>
  </g>
</svg>
